:SAMPLES-PER-SECOND 30
:FULLY-SPECIFIED
:DEGREES
1377
root  -62.849 34.9425 2.22226 41.1393 -84.803 -7.97766
RightUpLeg  -76.1527 -18.1598 13.4205
RightLeg  50.2339 1.8714 2.03967
RightFoot  -7.37499 0.0658136 -3.33325
RightToes  7.56698e-010 0 -3.6325e-017
Spine  69.6939 -6.75857 8.48897
Spine1  -10.958 -1.23901 -4.70468
HEad  -48.5655 -5.598 -2.05581
LeftShoulder1  1.62043 -13.0858 -1.50252
LeftArm  -65.5527 -58.3096 -15.029
LeftForeArm  8.16418 -40.2655 -8.96734
LeftHand  0.0466374 3.36835 -3.87015
RightShoulder  0.220161 7.12574 -7.3077
RightArm  -68.143 42.366 2.78206
RightForeArm  -25.0782 31.0727 8.04367
RightHand  -0.0758013 8.21189 -1.02592
LeftUpLeg  -75.1731 23.1768 -6.35112
LeftLeg  49.9344 -11.2116 -13.5256
LeftFoot  -5.90687 0.0918781 -1.18866
LeftToes  -2.88401e-009 5.30678e-011 -1.08654e-010
1378
root  -62.7551 35.3262 2.40382 43.551 -85.6176 -12.0645
RightUpLeg  -73.1142 -18.5574 13.0331
RightLeg  47.6351 2.56507 2.67318
RightFoot  -6.40831 0.0936818 -3.1929
RightToes  7.56698e-010 0 -3.6325e-017
Spine  68.016 -6.01071 8.27082
Spine1  -7.77883 -0.944355 -3.31807
HEad  -49.2348 -4.75676 -2.0887
LeftShoulder1  1.74429 -12.5975 -2.71142
LeftArm  -66.5223 -58.6171 -16.2723
LeftForeArm  9.45164 -42.8884 -9.77657
LeftHand  0.0762892 2.97255 -4.60892
RightShoulder  0.226083 6.94718 -7.20122
RightArm  -68.3446 41.6009 2.35302
RightForeArm  -24.9081 34.1148 8.8888
RightHand  -0.0358032 7.81752 -0.686483
LeftUpLeg  -71.7382 22.8371 -4.94021
LeftLeg  47.9407 -10.6597 -11.9988
LeftFoot  -5.68958 0.102564 -1.38672
LeftToes  -2.88401e-009 5.30678e-011 -1.08654e-010
1379
root  -62.6776 35.6617 2.58038 45.6745 -86.3014 -16.1683
RightUpLeg  -69.8158 -18.7858 12.0133
RightLeg  45.4863 3.11356 3.06594
RightFoot  -5.67803 0.0841538 -2.46669
RightToes  7.56698e-010 0 -3.6325e-017
Spine  66.5728 -5.01709 7.95248
Spine1  -5.54567 -0.579084 -1.38806
HEad  -49.523 -5.0039 -3.50573
LeftShoulder1  1.84731 -12.3281 -3.65399
LeftArm  -65.7404 -58.4833 -19.1544
LeftForeArm  10.2986 -45.8874 -10.837
LeftHand  0.0629292 3.44486 -5.12969
RightShoulder  0.237085 6.82397 -7.04935
RightArm  -67.5835 40.2041 2.55398
RightForeArm  -25.348 37.4554 9.94047
RightHand  0.00223097 8.0287 -0.298412
LeftUpLeg  -68.043 22.1467 -3.28484
LeftLeg  46.1393 -9.78715 -10.3427
LeftFoot  -5.84892 0.16241 -2.65886
LeftToes  -2.88401e-009 5.30678e-011 -1.08654e-010
1380
root  -62.6191 35.9797 2.74 52.1186 -86.7642 -24.2861
RightUpLeg  -66.8723 -18.8613 11.3665
RightLeg  43.4407 3.5972 3.33763
RightFoot  -4.55362 0.120312 -2.5501
RightToes  7.56698e-010 0 -3.6325e-017
Spine  63.5754 -4.96452 8.03039
Spine1  -1.04813 -0.846861 -1.10267
HEad  -51.6142 -4.90138 -4.68541
LeftShoulder1  1.87303 -12.3037 -3.86401
LeftArm  -67.6156 -57.7895 -17.9024
LeftForeArm  10.2446 -48.6575 -12.0116
LeftHand  0.031308 3.99698 -5.15213
RightShoulder  0.188304 6.92142 -7.61391
RightArm  -68.6472 38.8189 4.01953
RightForeArm  -25.5549 41.1497 11.202
RightHand  -0.331047 9.541 -2.99233
LeftUpLeg  -64.7456 21.1119 -1.38725
LeftLeg  44.4041 -8.6255 -8.55829
LeftFoot  -5.94503 0.202901 -3.5406
LeftToes  -2.88401e-009 5.30678e-011 -1.08654e-010
1381
root  -62.5652 36.3169 2.85758 56.4402 -87.0208 -30.9199
RightUpLeg  -63.1554 -19.2269 10.5751
RightLeg  41.2401 3.95828 3.41681
RightFoot  -3.66856 0.150565 -2.60846
RightToes  7.56698e-010 0 -3.6325e-017
Spine  60.2756 -3.12173 7.44418
Spine1  4.26519 -0.355801 2.75136
HEad  -52.9229 -5.97252 -7.48998
LeftShoulder1  1.9699 -11.77 -5.04912
LeftArm  -67.6535 -58.9688 -20.4865
LeftForeArm  11.4932 -51.7131 -13.3818
LeftHand  0.0596933 2.87039 -3.48827
RightShoulder  0.173122 6.81897 -7.76329
RightArm  -69.1249 36.8568 1.81415
RightForeArm  -25.6626 44.0499 12.3328
RightHand  -0.35667 9.99634 -3.09004
LeftUpLeg  -60.7409 19.7583 0.674352
LeftLeg  42.6507 -7.35047 -6.81686
LeftFoot  -5.60433 0.231336 -3.94801
LeftToes  -2.88401e-009 5.30678e-011 -1.08654e-010
1382
root  -62.5616 36.6307 2.98719 60.8903 -87.6964 -38.0817
RightUpLeg  -59.1354 -19.4817 9.15767
RightLeg  39.5302 4.48656 3.67973
RightFoot  -2.89022 0.188732 -2.82218
RightToes  7.56698e-010 0 -3.6325e-017
Spine  58.488 -2.37386 6.91986
Spine1  6.63114 -0.439815 4.19074
HEad  -56.1926 -4.99644 -8.0031
LeftShoulder1  2.11504 -11.4272 -6.47022
LeftArm  -65.3552 -59.3236 -22.7768
LeftForeArm  13.0029 -54.2783 -14.641
LeftHand  0.0248766 3.57898 -3.16305
RightShoulder  0.232313 6.65031 -7.0552
RightArm  -68.0485 35.1635 2.92228
RightForeArm  -23.391 48.203 14.0714
RightHand  -0.390693 9.68562 -3.38905
LeftUpLeg  -56.3352 18.6079 2.19902
LeftLeg  41.1053 -6.04533 -5.24416
LeftFoot  -5.56656 0.245923 -4.21031
LeftToes  -2.88401e-009 5.30678e-011 -1.08654e-010
1383
root  -62.5438 36.8636 3.11301 67.1188 -88.0601 -46.6237
RightUpLeg  -55.7505 -19.5632 7.91714
RightLeg  38.1613 4.65913 3.64434
RightFoot  -2.39895 0.175269 -2.44782
RightToes  7.56698e-010 0 -3.6325e-017
Spine  58.7762 -3.76254 7.32716
Spine1  3.78352 -0.899592 1.46201
HEad  -55.1497 -3.49297 -8.00232
LeftShoulder1  2.32632 -11.3939 -8.10849
LeftArm  -60.5624 -57.8249 -23.8488
LeftForeArm  12.8851 -55.7276 -15.5722
LeftHand  0.0204754 3.11282 -2.0045
RightShoulder  0.400375 6.21899 -4.94838
RightArm  -63.9241 34.1351 8.35571
RightForeArm  -20.1265 53.2954 16.6326
RightHand  -0.608715 9.79978 -5.04121
LeftUpLeg  -52.7626 17.127 3.67309
LeftLeg  40.0932 -4.70891 -3.86479
LeftFoot  -5.52649 0.272505 -4.71846
LeftToes  -2.88401e-009 5.30678e-011 -1.08654e-010
